<?xml version="1.0" standalone="no"?>
<!DOCTYPE svg PUBLIC "-//W3C//DTD SVG 20010904//EN"
 "http://www.w3.org/TR/2001/REC-SVG-20010904/DTD/svg10.dtd">
<svg version="1.0" xmlns="http://www.w3.org/2000/svg"
 width="1200.000000pt" height="1200.000000pt" viewBox="0 0 1200.000000 1200.000000"
 preserveAspectRatio="xMidYMid meet">
<metadata>
Created by potrace 1.14, written by Peter Selinger 2001-2017
</metadata>
<g transform="translate(0.000000,1200.000000) scale(0.100000,-0.100000)"
fill="#000000" stroke="none">
<path d="M5718 11995 c-2 -1 -55 -6 -118 -9 -63 -3 -126 -8 -140 -10 -14 -2
-56 -7 -93 -10 -73 -7 -74 -7 -242 -31 -129 -18 -145 -21 -248 -41 -42 -8 -90
-17 -105 -20 -15 -3 -35 -7 -44 -10 -10 -3 -30 -7 -45 -10 -164 -28 -696 -192
-888 -274 -11 -4 -76 -31 -145 -60 -491 -205 -1008 -518 -1450 -879 -266 -218
-578 -523 -770 -756 -41 -49 -78 -92 -81 -95 -3 -3 -37 -45 -76 -95 -139 -178
-334 -463 -422 -615 -18 -30 -36 -62 -41 -70 -65 -104 -200 -367 -282 -550
-210 -465 -360 -960 -444 -1458 -2 -12 -8 -48 -13 -80 -14 -81 -27 -183 -37
-287 -3 -38 -8 -78 -10 -87 -11 -60 -19 -293 -19 -543 1 -315 8 -473 32 -665
4 -30 8 -62 8 -70 9 -82 19 -153 36 -250 11 -63 24 -137 29 -165 19 -113 86
-390 125 -520 15 -49 30 -99 32 -110 17 -66 144 -418 173 -480 5 -11 25 -60
45 -108 66 -162 170 -370 310 -622 55 -99 198 -322 287 -450 79 -113 274 -368
311 -407 7 -7 25 -29 41 -48 197 -242 626 -652 871 -835 22 -16 42 -32 45 -35
3 -3 32 -25 65 -50 124 -93 457 -316 540 -360 22 -12 56 -31 75 -42 143 -84
420 -224 565 -285 55 -23 74 -31 160 -68 50 -22 266 -101 340 -124 39 -13 77
-25 85 -28 8 -3 20 -7 25 -9 6 -1 47 -14 92 -27 220 -68 604 -153 818 -182
143 -19 197 -26 255 -31 36 -3 76 -7 90 -10 149 -25 930 -25 1080 0 14 2 59 7
100 11 41 3 102 10 135 15 33 5 80 11 105 14 25 4 56 8 70 11 14 2 67 11 119
20 509 87 1081 276 1578 522 860 424 1597 1039 2173 1813 293 394 510 775 725
1275 60 138 200 543 230 665 9 36 20 76 25 90 5 14 12 36 14 50 3 14 15 66 27
115 11 50 22 99 25 110 2 11 6 31 9 45 6 30 12 57 25 132 11 57 14 75 24 133
3 17 10 66 16 110 6 44 13 95 15 114 3 18 8 61 11 95 3 33 7 77 9 96 20 171
27 751 12 945 -11 143 -31 337 -42 404 -2 13 -7 45 -11 70 -9 65 -34 213 -39
231 -2 8 -6 33 -10 55 -11 75 -74 340 -111 465 -20 69 -40 139 -44 155 -17 63
-138 399 -170 470 -5 11 -22 52 -38 90 -162 389 -415 837 -670 1184 -58 79
-225 292 -271 345 -232 268 -489 524 -730 726 -416 349 -908 657 -1392 873
-500 224 -1068 391 -1574 462 -22 3 -51 8 -65 10 -14 3 -50 7 -80 10 -30 3
-71 8 -90 10 -19 2 -67 7 -105 10 -39 4 -90 9 -115 11 -50 6 -706 14 -712 9z
m13 -547 c1 -29 3 -64 4 -78 1 -14 5 -74 9 -134 3 -59 8 -112 11 -117 9 -13
-27 -26 -80 -28 -27 -1 -66 -4 -85 -6 -19 -2 -70 -6 -113 -10 -44 -4 -87 -8
-96 -10 -10 -2 -42 -6 -72 -10 -30 -3 -61 -8 -69 -10 -8 -2 -35 -7 -60 -10
-37 -5 -145 -25 -275 -50 -68 -14 -155 -40 -155 -47 0 -5 20 -90 45 -190 26
-100 44 -186 41 -193 -2 -6 -36 -20 -74 -29 -178 -43 -480 -151 -692 -248
-369 -169 -785 -427 -1050 -654 -116 -99 -218 -190 -288 -258 -45 -45 -86 -82
-90 -83 -4 -2 -72 60 -152 137 l-145 139 -58 -62 c-32 -34 -81 -89 -110 -121
-29 -33 -62 -71 -75 -85 -53 -60 -245 -314 -315 -417 l-75 -112 -171 113 -170
112 52 79 c237 357 567 738 882 1019 43 39 86 77 95 85 8 8 38 33 65 55 28 21
52 42 55 45 3 3 37 30 75 60 39 30 75 58 80 63 256 205 763 503 1110 652 61
26 124 53 140 60 105 46 353 131 585 200 136 41 437 107 620 135 41 7 82 14
90 15 8 2 44 6 80 10 36 3 72 8 80 10 8 2 56 7 105 10 50 4 91 8 92 9 1 1 36
3 77 4 l76 3 1 -53z m787 38 c9 -2 46 -7 82 -10 865 -91 1719 -401 2450 -889
152 -102 333 -235 431 -317 36 -30 79 -67 97 -81 200 -162 510 -483 725 -751
129 -160 334 -446 324 -453 -1 -1 -77 -52 -170 -113 l-167 -110 -77 112 c-64
93 -163 228 -210 286 -113 141 -205 247 -300 347 l-49 51 -143 -139 c-78 -77
-147 -139 -151 -137 -5 2 -53 46 -107 98 -238 230 -460 405 -748 589 -194 124
-379 221 -670 351 -110 50 -465 175 -550 195 -87 20 -118 30 -122 41 -2 6 16
92 41 191 25 98 46 184 46 190 0 16 -329 89 -489 108 -25 3 -57 8 -71 10 -24
4 -54 8 -160 20 -67 7 -232 19 -258 18 l-24 -1 7 122 c4 66 9 137 10 156 2 19
3 57 4 83 l1 49 116 -7 c63 -3 123 -8 132 -9z m-257 -1790 c68 -4 126 -9 130
-12 4 -2 28 -5 53 -6 46 -1 47 -2 42 -32 -3 -17 -8 -58 -11 -91 -3 -33 -10
-94 -15 -135 -6 -41 -12 -95 -15 -120 -3 -25 -9 -79 -15 -120 -9 -72 -12 -101
-25 -215 -3 -27 -8 -66 -11 -85 -2 -19 -7 -55 -9 -79 -2 -24 -7 -60 -10 -80
-6 -48 -47 -388 -50 -426 -2 -16 -6 -49 -9 -72 -8 -57 -14 -105 -22 -178 -3
-33 -8 -68 -10 -77 -1 -10 -6 -49 -10 -88 l-7 -70 29 -1 c16 0 36 -2 44 -4
401 -83 739 -271 1010 -563 l85 -91 739 555 c406 305 742 554 746 554 16 0
159 -206 260 -377 87 -146 233 -440 227 -456 -3 -7 -193 -93 -423 -191 -231
-99 -441 -189 -469 -202 -27 -12 -75 -32 -105 -44 -30 -12 -73 -31 -95 -41
-22 -10 -150 -65 -285 -122 -135 -58 -264 -113 -286 -123 l-41 -18 29 -80 c27
-73 67 -222 73 -271 2 -11 8 -56 15 -100 15 -95 19 -298 9 -392 -17 -157 -21
-181 -36 -238 -8 -33 -17 -70 -19 -82 -2 -12 -17 -59 -33 -103 -25 -72 -27
-82 -12 -89 9 -5 129 -57 266 -115 138 -59 264 -113 280 -121 37 -16 880 -376
1020 -435 55 -23 103 -45 107 -48 14 -14 -95 -246 -211 -447 -71 -125 -228
-363 -258 -394 -9 -8 -18 -10 -21 -5 -4 5 -113 89 -242 185 -555 415 -967 723
-995 744 -16 13 -64 49 -105 79 -41 31 -86 64 -100 75 l-25 20 -29 -37 c-38
-48 -198 -207 -256 -255 -207 -172 -503 -313 -779 -371 -125 -27 -115 0 -86
-226 5 -42 13 -109 20 -170 3 -25 10 -79 15 -120 5 -41 12 -95 15 -120 3 -25
8 -63 10 -85 3 -22 8 -65 10 -95 3 -30 7 -64 9 -75 2 -11 7 -51 11 -90 4 -38
9 -78 11 -89 2 -10 6 -44 9 -75 4 -31 8 -67 11 -81 2 -14 6 -56 10 -95 3 -38
8 -79 10 -90 5 -25 22 -161 29 -235 3 -30 8 -71 10 -90 16 -107 16 -109 -8
-114 -174 -36 -595 -40 -895 -10 l-63 7 5 36 c3 20 10 81 17 136 6 55 12 102
14 105 1 3 6 46 10 95 4 50 8 92 10 95 3 4 13 88 20 160 1 14 5 50 9 80 8 64
10 80 31 255 9 72 18 144 20 160 2 17 7 56 10 89 4 32 8 68 10 80 2 11 6 46
10 76 6 62 12 107 19 165 3 22 8 67 12 100 3 33 9 80 13 105 14 94 17 91 -89
112 -192 38 -439 138 -605 243 -148 94 -342 265 -440 387 l-30 37 -440 -330
c-242 -181 -447 -335 -455 -342 -83 -66 -572 -427 -579 -427 -20 0 -191 253
-308 455 -93 161 -189 373 -176 386 5 4 159 71 343 149 184 79 358 153 387
166 28 13 54 24 57 24 3 0 31 12 63 26 98 43 108 47 463 199 190 81 353 151
362 156 16 9 16 12 -1 52 -25 59 -65 207 -77 287 -3 19 -7 41 -9 47 -23 69
-23 497 0 566 2 7 7 30 10 51 9 61 42 187 73 275 l29 79 -286 123 c-157 67
-306 131 -331 142 -52 22 -33 14 -345 147 -132 56 -253 108 -270 116 -16 7
-127 54 -245 104 -118 51 -218 95 -222 99 -4 3 14 54 40 111 100 223 248 480
379 659 l59 79 259 -194 c143 -107 267 -200 275 -207 8 -7 31 -23 50 -37 19
-13 37 -27 40 -30 3 -3 39 -30 80 -60 41 -30 82 -61 90 -67 8 -7 168 -127 355
-266 l339 -254 126 127 c129 130 217 201 355 286 202 124 443 215 644 241 l43
6 -6 64 c-3 35 -13 115 -21 176 -8 62 -17 135 -20 162 -3 28 -7 66 -10 85 -12
96 -15 122 -25 205 -15 127 -22 186 -25 213 -2 12 -6 50 -10 85 -3 34 -8 73
-10 87 -6 41 -14 100 -25 200 -6 52 -13 111 -15 130 -3 19 -7 58 -10 85 -3 28
-8 61 -10 75 -2 14 -6 50 -10 80 -7 65 -14 121 -21 173 -3 20 -1 37 3 38 4 0
17 2 28 4 53 9 130 16 235 21 63 4 116 7 117 8 4 3 256 -2 364 -8z m-4979
-1272 c95 -47 175 -87 177 -89 2 -2 -22 -55 -52 -117 -123 -254 -207 -472
-302 -777 -9 -29 -15 -54 -13 -55 2 -1 86 -26 188 -55 102 -29 189 -56 193
-60 4 -4 -2 -42 -13 -84 -12 -42 -23 -84 -25 -94 -20 -92 -38 -172 -41 -193
-2 -14 -7 -36 -10 -50 -6 -26 -8 -34 -20 -115 -4 -27 -9 -57 -10 -65 -2 -8 -6
-37 -9 -65 -3 -27 -7 -63 -9 -80 -2 -16 -7 -66 -11 -110 -4 -44 -8 -100 -11
-125 -5 -62 -5 -500 1 -580 5 -79 15 -182 20 -230 2 -19 7 -55 10 -80 15 -132
65 -392 106 -554 16 -65 28 -120 26 -122 -2 -3 -13 -6 -23 -9 -11 -2 -96 -26
-191 -52 -169 -47 -172 -48 -166 -73 33 -145 196 -574 303 -793 34 -71 60
-130 58 -132 -7 -7 -349 -175 -357 -175 -18 0 -194 393 -279 626 -100 272
-213 692 -246 914 -3 19 -10 58 -15 85 -5 28 -12 75 -16 105 -3 30 -8 66 -10
80 -8 50 -19 157 -31 305 -16 194 -9 794 11 917 2 13 6 55 10 93 3 39 10 97
15 130 5 33 11 77 14 97 59 398 180 836 340 1232 69 168 196 436 208 436 4 0
86 -39 180 -86z m9690 -51 c115 -240 197 -446 275 -693 46 -144 96 -318 108
-380 2 -8 10 -46 19 -85 19 -78 42 -192 51 -245 29 -185 45 -295 50 -350 3
-36 7 -76 10 -90 26 -148 26 -904 0 -1060 -2 -14 -7 -50 -10 -80 -6 -61 -13
-119 -20 -165 -9 -64 -35 -221 -40 -245 -3 -14 -12 -59 -20 -102 -42 -223
-141 -560 -243 -835 -72 -192 -238 -553 -254 -553 -7 0 -347 167 -356 175 -2
2 22 55 53 120 102 214 211 487 269 675 15 47 31 98 36 114 5 16 7 32 5 36 -2
4 -90 31 -194 60 -174 49 -190 56 -186 74 2 12 16 68 30 126 15 58 28 114 31
125 13 63 24 124 28 150 3 17 12 69 20 116 8 47 18 112 21 143 4 31 8 65 10
75 3 16 14 146 21 241 4 67 5 497 0 555 -15 193 -21 257 -30 320 -15 109 -37
246 -41 257 -2 7 -6 27 -9 43 -2 17 -11 64 -21 105 -21 98 -20 94 -40 170 -9
36 -19 74 -21 85 -3 18 15 25 189 74 105 29 193 55 195 56 4 3 -68 234 -105
335 -52 143 -148 371 -210 498 -30 62 -54 115 -52 117 9 8 345 174 355 174 6
1 40 -61 76 -136z m-9048 -5438 c64 -85 65 -86 121 -155 95 -116 165 -196 261
-297 l40 -43 144 140 c80 77 148 139 151 138 4 -2 47 -41 96 -88 247 -235 412
-367 668 -536 83 -55 159 -104 170 -111 172 -103 427 -234 580 -298 50 -20
104 -43 120 -50 93 -40 454 -158 523 -171 18 -4 36 -12 38 -19 3 -7 -15 -93
-40 -192 -25 -98 -46 -184 -46 -190 0 -6 33 -18 73 -27 39 -10 90 -21 112 -26
69 -16 219 -42 365 -64 19 -3 60 -8 90 -12 30 -3 71 -7 90 -10 41 -4 214 -17
248 -18 l23 0 -7 -125 c-4 -70 -8 -139 -10 -156 -1 -16 -2 -52 -3 -78 l-1 -49
-112 7 c-62 3 -126 8 -143 10 -16 2 -57 7 -90 10 -33 3 -87 10 -120 15 -85 13
-129 19 -173 25 -20 3 -72 13 -115 21 -42 9 -90 18 -105 20 -51 9 -277 66
-382 96 -340 97 -643 216 -960 375 -102 52 -192 98 -200 103 -70 43 -253 150
-256 150 -3 0 -10 5 -17 10 -7 6 -62 44 -123 84 -576 382 -1110 914 -1497
1490 l-67 99 171 113 170 112 76 -111 c42 -62 103 -148 137 -192z m8548 183
l158 -105 -56 -84 c-49 -73 -134 -192 -171 -239 -203 -260 -327 -402 -512
-588 -610 -611 -1366 -1075 -2186 -1341 -107 -35 -385 -114 -445 -126 -8 -2
-69 -14 -135 -28 -66 -14 -136 -28 -155 -32 -19 -3 -46 -7 -60 -10 -14 -2 -41
-6 -60 -9 -19 -2 -57 -8 -85 -12 -27 -4 -59 -8 -70 -9 -11 -1 -47 -5 -80 -9
-97 -13 -114 -14 -232 -21 l-113 -7 -1 63 c0 35 -2 73 -4 84 -2 11 -7 73 -11
137 -5 94 -3 119 8 122 7 3 63 7 123 10 61 4 121 8 135 10 14 2 52 7 85 10 33
4 71 8 85 11 14 2 61 9 105 15 173 25 455 88 455 101 0 6 -20 91 -45 191 -26
100 -44 186 -42 192 3 6 38 20 78 30 145 37 417 130 564 193 567 244 1022 543
1448 953 54 52 102 96 107 98 4 2 70 -58 146 -132 77 -75 143 -136 148 -136 5
0 28 20 50 44 81 87 132 143 171 190 22 27 45 54 50 60 19 19 159 199 200 255
50 68 60 83 114 165 30 47 49 66 60 63 9 -2 87 -52 173 -109z"/>
</g>
</svg>
